<?xml version="1.0" standalone="no"?>
<!DOCTYPE svg PUBLIC "-//W3C//DTD SVG 20010904//EN"
 "http://www.w3.org/TR/2001/REC-SVG-20010904/DTD/svg10.dtd">
<svg version="1.0" xmlns="http://www.w3.org/2000/svg"
 width="512.000000pt" height="512.000000pt" viewBox="0 0 512.000000 512.000000"
 preserveAspectRatio="xMidYMid meet">
<metadata>
Created by potrace 1.11, written by Peter Selinger 2001-2013
</metadata>
<g transform="translate(0.000000,512.000000) scale(0.100000,-0.100000)"
fill="#000000" stroke="none">
<path d="M0 2560 l0 -2560 2560 0 2560 0 0 2560 0 2560 -2560 0 -2560 0 0
-2560z m1393 1218 c333 -91 607 -309 759 -603 60 -116 83 -176 116 -299 25
-95 27 -114 27 -316 0 -202 -2 -221 -28 -319 -132 -500 -492 -842 -974 -926
-69 -12 -190 -15 -609 -15 l-524 0 0 140 0 140 120 0 120 0 0 975 0 975 -120
0 -120 0 0 141 0 140 568 -3 567 -4 98 -26z m2926 -1066 c211 -603 388 -1105
393 -1114 8 -16 25 -18 133 -18 l125 0 0 -140 0 -140 -410 0 -410 0 0 140 0
139 104 3 104 3 -98 280 -97 280 -486 3 -485 2 -25 -72 c-67 -195 -167 -492
-167 -495 0 -1 59 -3 130 -3 l130 0 0 -140 0 -140 -410 0 -410 0 0 140 0 140
109 0 109 0 20 58 c18 53 733 2085 754 2145 l10 27 246 0 247 0 384 -1098z"/>
<path d="M725 3518 c-3 -7 -4 -445 -3 -973 l3 -960 240 0 c273 0 339 10 466
71 247 119 414 335 497 643 22 83 25 117 26 256 0 132 -4 175 -22 247 -50 201
-128 345 -261 481 -129 133 -289 215 -462 237 -123 15 -478 13 -484 -2z"/>
<path d="M3661 3520 c-38 -107 -371 -1081 -371 -1085 0 -3 173 -5 385 -5 212
0 385 2 385 6 0 3 -77 226 -171 497 -94 271 -181 521 -194 557 l-22 64 -12
-34z"/>
</g>
</svg>
